<?xml version="1.0" encoding="utf-8"?>
<!-- Generator: Adobe Illustrator 16.0.3, SVG Export Plug-In . SVG Version: 6.00 Build 0)  -->
<!DOCTYPE svg PUBLIC "-//W3C//DTD SVG 1.1//EN" "http://www.w3.org/Graphics/SVG/1.1/DTD/svg11.dtd">
<svg version="1.1" id="レイヤー_1" xmlns="http://www.w3.org/2000/svg" xmlns:xlink="http://www.w3.org/1999/xlink" x="0px"
	 y="0px" width="802.204px" height="802.204px" viewBox="0 0 802.204 802.204" enable-background="new 0 0 802.204 802.204"
	 xml:space="preserve">
<path fill-rule="evenodd" clip-rule="evenodd" fill="#F46060" d="M0,702.991c0,54.794,44.419,99.213,99.212,99.213h603.779
	c54.794,0,99.213-44.419,99.213-99.213V99.212C802.204,44.419,757.785,0,702.991,0H99.212C44.419,0,0,44.419,0,99.212V702.991z"/>
<path fill-rule="evenodd" clip-rule="evenodd" fill="#FFFFFF" d="M56.13,389.6c0.002-101.651,0.002-203.303,0.002-304.955
	c-1.825-17.093,14.091-31.67,31.733-31.635c109.983,0.225,219.967,0.118,329.951,0.12c10.498,0,20.999,0.131,31.494-0.044
	c9.745-0.163,17.689,3.346,24.559,10.235c43.416,43.546,86.891,87.031,130.478,130.405c5.319,5.293,7.851,11.097,7.835,18.627
	c-0.135,63.49-0.077,126.98-0.081,190.471c0,7.227-0.009,7.232-7.004,7.238c-6.832,0.005-13.665,0.052-20.496-0.028
	c-3.969-0.047-4.281-0.427-4.439-4.259c-0.063-1.498-0.02-3-0.02-4.499c0-56.325,0.002-112.65,0-168.975
	c0-7.213-0.01-7.222-7.023-7.223c-31.328-0.002-62.658-0.184-93.985,0.076c-17.091,0.142-32.963-12.271-36.108-29.899
	c-0.56-3.136-0.896-6.239-0.894-9.418c0.024-31.328,0.016-62.657,0.01-93.986c-0.001-6.778-0.014-6.792-6.946-6.792
	c-113.483-0.003-226.967-0.002-340.449-0.002c-0.833,0-1.668-0.027-2.5,0.01c-3.226,0.141-3.234,0.148-3.234,3.43
	c0.013,198.138,0.027,396.274,0.041,594.411c0,1.166,0.004,2.333,0,3.499c-0.025,6.69-0.025,6.692,6.937,6.694
	c12.331,0.002,24.663,0.06,36.994-0.041c3.015-0.024,5.362,0.742,7.588,2.925c8.318,8.154,16.765,16.18,25.61,23.771
	c0.631,0.542,1.228,1.131,1.786,1.747c0.525,0.579,1.477,1.156,0.867,2.033c-0.278,0.399-1.202,0.418-1.845,0.479
	c-0.826,0.08-1.665,0.034-2.498,0.034c-26.33,0.001-52.659,0.031-78.988-0.014c-8.524-0.014-15.96-2.8-21.991-9.04
	c-4.993-5.166-7.427-11.193-7.419-18.447c0.067-63.324,0.036-126.647,0.034-189.972C56.127,467.585,56.128,428.592,56.13,389.6z
	 M520.889,194.112c10.823,0,21.646,0.032,32.469-0.035c1.558-0.01,3.898,0.902,4.499-0.781c0.544-1.527-1.691-2.603-2.823-3.736
	c-25.401-25.463-50.83-50.896-76.255-76.336c-0.706-0.707-1.395-1.433-2.131-2.106c-0.583-0.533-1.206-1.417-2.056-0.816
	c-0.402,0.284-0.429,1.196-0.491,1.838c-0.081,0.824-0.033,1.663-0.033,2.495c0.002,21.479,0.269,42.964-0.115,64.437
	c-0.166,9.293,5.689,15.583,15.471,15.146C499.893,193.75,510.398,194.111,520.889,194.112z"/>
<path fill-rule="evenodd" clip-rule="evenodd" fill="#FFFFFF" d="M600.314,432.082c29.514-0.355,55.604,6.181,80.171,18.776
	c18.727,9.601,35.171,22.374,48.93,38.245c19.866,22.915,32.16,49.625,37.462,79.47c2.278,12.821,3.03,25.838,2.094,38.805
	c-1.462,20.231-5.994,39.786-14.646,58.274c-9.579,20.467-22.423,38.593-39.174,53.756c-19.169,17.353-41.127,29.857-66.115,36.97
	c-18.264,5.198-36.859,7.634-55.765,6.572c-16.33-0.918-32.296-4.123-47.786-9.665c-18.392-6.581-35.019-16.189-50.329-28.206
	c-15.652-12.285-28.092-27.32-38.252-44.362c-7.999-13.417-13.609-27.781-17.693-42.804c-1.927-7.088-2.887-14.343-4.039-21.57
	c-1.212-7.605-1.052-15.262-1.034-22.917c0.031-13.39,1.844-26.585,5.344-39.457c4.836-17.788,12.005-34.617,22.632-49.813
	c10.973-15.689,24.169-29.17,39.792-40.308c19.131-13.638,40.188-22.887,63.084-27.881
	C577.194,433.305,589.544,431.462,600.314,432.082z M604.755,463.897c-7.811,0.382-13.761,0.16-19.761,0.96
	c-23.253,3.097-44.322,11.467-63.498,24.898c-5.067,3.55-3.86,3.332-0.515,6.717c49.168,49.75,99.393,98.448,147.951,148.807
	c10.635,11.03,21.632,21.71,32.465,32.549c0.942,0.942,1.9,1.868,2.854,2.798c1.357,1.323,2.552,1.292,3.711-0.316
	c2.334-3.24,4.942-6.304,7.065-9.674c16.382-26,24.048-54.17,21.226-85.015c-1.1-12.01-3.535-23.646-7.729-34.954
	c-8.345-22.505-21.312-41.795-40.23-56.672C663.306,474.344,635.057,463.53,604.755,463.897z M602.238,731.208
	c4.858-0.133,9.642-0.455,14.459-0.938c23.623-2.372,44.799-10.906,64.11-24.477c1.452-1.021,1.805-1.823,0.446-3.086
	c-0.61-0.566-1.174-1.182-1.762-1.771c-34.367-34.399-68.696-68.838-103.141-103.16c-5.667-5.646-10.825-11.749-16.474-17.399
	c-20.256-20.264-40.489-40.548-60.731-60.824c-0.706-0.707-1.397-1.431-2.129-2.11c-2.673-2.482-2.903-2.492-4.963,0.239
	c-1.604,2.125-3.224,4.252-4.644,6.499c-18.373,29.074-25.234,60.558-19.257,94.545c5.759,32.741,21.174,60.008,47.1,81.068
	C540.592,720.376,569.68,730.639,602.238,731.208z"/>
<path fill-rule="evenodd" clip-rule="evenodd" fill="#FFFFFF" d="M105.123,532.387c-0.001-18.491,0.165-36.984-0.063-55.472
	c-0.138-11.228,6.486-16.323,14.775-17.619c21.359-3.339,41.785-9.765,61.708-17.96c16.986-6.987,33.108-15.61,48.426-25.744
	c3.769-2.493,7.552-4.832,12.404-4.584c2.745,0.141,5.173,0.726,7.52,2.227c11.504,7.356,23.104,14.57,35.453,20.452
	c25.229,12.013,51.404,21.119,79.088,25.558c10.604,1.7,15.642,7.616,15.649,18.472c0.026,36.814,0.239,73.632-0.111,110.443
	c-0.132,13.895-3.523,27.382-8.657,40.313c-7.134,17.969-17.357,33.965-30.305,48.399c-16.41,18.297-35.609,32.924-56.754,45.17
	c-11.25,6.517-22.922,12.206-34.854,17.371c-5.188,2.247-10.282,2.253-15.485,0.008c-20.718-8.937-40.412-19.651-58.536-33.174
	c-8.285-6.182-16.169-12.878-23.449-20.143c-12.66-12.634-23.535-26.773-31.593-42.815c-7.439-14.81-12.669-30.349-14.432-46.999
	c-0.564-5.327-0.748-10.612-0.764-15.928C105.094,564.371,105.125,548.379,105.123,532.387z M349.097,540.114
	c0-15.323,0.011-30.647-0.006-45.972c-0.006-5.771-0.059-5.73-5.476-6.921c-34.445-7.567-66.872-20.174-96.753-39.035
	c-2.566-1.62-4.771-2.075-7.333-0.359c-0.965,0.646-2.054,1.102-3.056,1.695c-26.961,15.983-55.618,27.852-86.02,35.494
	c-3.714,0.934-7.413,1.932-11.151,2.756c-2.131,0.47-3.186,1.578-3.129,3.773c0.039,1.498-0.019,2.998-0.02,4.497
	c-0.003,28.649-0.021,57.298,0,85.947c0.01,13.017,3.045,25.432,8.124,37.312c9.848,23.034,25.634,41.502,44.909,57.146
	c14.55,11.808,30.569,21.273,47.404,29.452c4.321,2.1,8.16,2.153,12.268-0.186c5.93-3.376,12.027-6.461,17.897-9.935
	c18.546-10.977,35.949-23.362,50.206-39.829c8.771-10.131,16.603-20.785,22.274-32.972c6.261-13.449,10.104-27.405,9.898-42.39
	C348.952,567.1,349.098,553.606,349.097,540.114z"/>
<path fill-rule="evenodd" clip-rule="evenodd" fill="#FFFFFF" d="M322.976,250.109c6.999,0.003,13.998-0.086,20.995,0.024
	c9.866,0.155,19.517,1.619,28.949,4.682c17.441,5.662,28.083,17.617,33.391,34.906c2.573,8.38,3.487,17.011,3.594,25.603
	c0.143,11.51-1.467,22.948-5.998,33.695c-6.496,15.408-17.945,25.341-34.025,29.88c-10.148,2.865-20.526,4.149-31.064,4.155
	c-13.33,0.007-26.66,0.003-39.99-0.003c-1.332-0.001-2.666-0.015-3.996-0.086c-1.55-0.083-2.483-0.899-2.569-2.488
	c-0.08-1.496-0.11-2.996-0.11-4.494c-0.006-39.657-0.007-79.313-0.002-118.971c0.001-6.889,0.013-6.896,6.834-6.904
	C306.979,250.1,314.978,250.106,322.976,250.109z M324.086,316.203c0,4.325-0.001,8.65,0,12.976c0,7.319-0.017,14.639,0.008,21.958
	c0.019,5.884,0.076,5.933,5.74,5.978c3.327,0.026,6.656-0.066,9.98,0.023c5.57,0.149,10.928-0.885,16.114-2.805
	c7.762-2.874,13.287-8.23,16.211-15.915c4.675-12.285,5.135-24.892,2.432-37.742c-2.854-13.558-11.466-20.78-24.585-23.604
	c-6.936-1.493-13.912-0.889-20.876-0.971c-4.751-0.056-4.994,0.264-5.011,5.17C324.059,292.915,324.086,304.559,324.086,316.203z"/>
<path fill-rule="evenodd" clip-rule="evenodd" fill="#FFFFFF" d="M169.15,316.086c0-19.329,0-38.658,0-57.986c0-1-0.017-2,0.005-3
	c0.106-4.72,0.308-4.909,5.238-4.995c0.666-0.012,1.333-0.002,2-0.002c14.83,0.004,29.66-0.09,44.489,0.052
	c7.827,0.074,15.617,0.909,23.201,2.962c15.594,4.222,25.814,15.052,28.203,31.354c1.117,7.629,0.487,14.966-1.177,22.244
	c-2.947,12.897-10.671,21.985-23.1,26.836c-6.872,2.683-14.02,4.045-21.392,4.584c-7.638,0.56-15.252,1.319-22.92,0.695
	c-2.163-0.176-1.791,1.263-1.782,2.643c0.073,11.829,0.097,23.659,0.13,35.488c0.003,1-0.036,1.999-0.047,2.998
	c-0.023,2.048-1.07,3.047-3.103,3.057c-0.999,0.005-1.999,0.038-2.998,0.039c-6.832,0.002-13.664,0.012-20.496-0.006
	c-6.226-0.016-6.246-0.029-6.249-6.478C169.145,356.411,169.15,336.249,169.15,316.086z M202.066,293.976
	c0,4.989-0.077,9.979,0.026,14.967c0.074,3.559,0.498,3.896,4.123,4.082c6.334,0.324,12.646-0.474,18.854-1.324
	c8.992-1.232,13.921-7.595,14.073-16.612c0.02-1.164,0.027-2.329-0.003-3.492c-0.178-6.783-3.949-12.278-10.504-14.15
	c-7.707-2.201-15.694-2.516-23.686-2.23c-2.457,0.088-2.894,1.762-2.885,3.794C202.087,283.999,202.072,288.988,202.066,293.976z"/>
<path fill-rule="evenodd" clip-rule="evenodd" fill="#FFFFFF" d="M431.151,316.66c-0.001-19.832-0.002-39.665,0.001-59.498
	c0.001-1.333,0.035-2.666,0.049-3.999c0.021-2.076,1.136-3.003,3.142-3.013c1-0.004,2-0.039,2.999-0.039
	c24.999-0.004,49.999-0.006,74.998-0.005c0.999,0.001,1.999,0.029,2.998,0.053c1.468,0.033,1.976,0.782,1.965,2.24
	c-0.057,7.145,1.337,14.237,0.529,21.428c-0.455,4.058-0.194,4.198-4.259,4.215c-13.332,0.056-26.665,0.023-39.998,0.025
	c-1.5,0-3-0.009-4.5,0.001c-5.744,0.04-5.529,0.03-5.205,5.823c0.314,5.649,0.189,11.327,0.142,16.992
	c-0.044,5.094-0.113,5.136,5.163,5.151c10.5,0.031,20.999-0.018,31.499,0.02c10.376,0.037,9.333-1.071,9.385,9.37
	c0.02,3.833,0.03,7.666-0.002,11.499c-0.047,5.662-0.384,6.036-5.88,6.075c-6.667,0.048-13.333,0.025-20,0.008
	c-5.832-0.016-11.668,0.041-17.494-0.158c-2.092-0.071-2.771,0.138-2.898,2.578c-0.312,5.997,0.467,11.942,0.313,17.925
	c-0.21,8.161-0.02,16.332-0.067,24.498c-0.028,4.907-0.263,5.154-5.04,5.189c-7.499,0.055-15,0.045-22.499,0.003
	c-5.134-0.027-5.321-0.201-5.328-5.384C431.138,357.326,431.153,336.993,431.151,316.66z"/>
<path fill-rule="evenodd" clip-rule="evenodd" fill="#FFFFFF" d="M372.54,724.054c-16.646,0-33.293,0.001-49.939-0.002
	c-1.331,0-2.665,0.012-3.992-0.073c-0.45-0.028-1.032-0.22-1.285-0.545c-0.353-0.454,0.024-0.981,0.438-1.269
	c5.918-4.114,10.213-9.988,15.812-14.479c3.749-3.007,7.079-6.553,10.476-9.978c3.209-3.237,6.786-4.747,11.531-4.702
	c22.804,0.215,45.61,0.122,68.416,0.084c4.885-0.008,9.025,1.381,12.618,4.898c9.13,8.94,2.978,21.992-6.259,25.017
	c-2.722,0.892-5.523,1.072-8.376,1.066C405.5,724.036,389.02,724.054,372.54,724.054z"/>
<path fill-rule="evenodd" clip-rule="evenodd" fill="#FFFFFF" d="M626.785,591.088c-2.132-0.046-7.241-6.16-8.44-7.352
	c-14.658-14.563-29.249-29.191-43.856-43.804c-0.825-0.825-1.614-1.688-2.479-2.47c-1.691-1.529-1.758-2.928-0.116-4.647
	c3.905-4.093,7.576-8.41,11.537-12.446c4.9-4.992,9.118-10.604,14.245-15.39c3.686-3.439,4.203-3.58,7.709-0.082
	c12.147,12.124,24.515,24.043,36.272,36.536c6.965,7.401,39.285,41.613,40.43,44.43c2.167,5.334,0.54,6.809-5.582,6.769
	C666.551,591.47,630.868,591.005,626.785,591.088z"/>
<path fill-rule="evenodd" clip-rule="evenodd" fill="#FFFFFF" d="M576.145,645.174c0.003-11.159,0-22.319,0.01-33.479
	c0.001-0.814-0.22-1.926,0.537-2.303c0.99-0.491,1.278,0.739,1.817,1.295c6.837,7.046,13.501,14.261,21.049,20.59
	c2.417,2.025,4.744,4.244,6.719,6.692c3.99,4.945,8.584,9.292,13.07,13.744c1.897,1.883,2.88,3.9,2.841,6.614
	c-0.103,7.16,0.031,14.324-0.057,21.485c-0.069,5.702-3.204,8.72-8.868,8.046c-9.475-1.126-18.924-0.829-28.4-0.32
	c-4.203,0.227-7.728-2.655-8.499-6.903c-0.265-1.459-0.21-2.985-0.213-4.481C576.135,665.829,576.143,655.501,576.145,645.174z"/>
<path fill-rule="evenodd" clip-rule="evenodd" fill="#FFFFFF" d="M543.604,593.087c-4.488,0-8.977-0.054-13.464,0.02
	c-2.7,0.044-5.013-0.665-6.309-3.15c-1.378-2.643-0.701-5.13,1.028-7.441c3.306-4.417,7.509-7.979,11.294-11.938
	c1.057-1.104,2.054-0.776,3.005,0.173c6.708,6.692,13.419,13.381,20.119,20.081c0.461,0.461,1.105,1.094,0.612,1.685
	c-0.341,0.408-1.196,0.528-1.824,0.533c-4.82,0.042-9.641,0.023-14.462,0.023C543.604,593.078,543.604,593.083,543.604,593.087z"/>
<path fill-rule="evenodd" clip-rule="evenodd" fill="#FFFFFF" d="M224.524,632.979c-1.685,0.083-3.035-0.936-4.385-1.91
	c-2.993-2.159-5.546-4.837-7.918-7.598c-8.591-10.002-18.372-18.828-27.524-28.272c-5.216-5.384-10.608-10.596-15.856-15.948
	c-3.643-3.717-3.65-5.615-0.07-9.271c3.961-4.048,7.948-8.076,12.044-11.985c3.674-3.507,5.953-3.658,9.43-0.123
	c10.272,10.445,21.169,20.281,30.747,31.406c0.543,0.63,1.156,1.199,1.708,1.821c1.219,1.375,2.434,1.603,3.766,0.126
	c0.78-0.864,1.647-1.65,2.473-2.475c21.668-21.682,43.336-43.363,65.005-65.045c0.589-0.59,1.168-1.188,1.765-1.769
	c4.597-4.479,6.127-4.494,10.732,0.044c4.153,4.093,8.312,8.183,12.359,12.378c2.979,3.087,2.943,4.433-0.082,7.587
	c-3.112,3.246-6.347,6.375-9.528,9.555c-25.802,25.794-51.604,51.587-77.403,77.384
	C229.772,630.896,227.818,632.998,224.524,632.979z"/>
</svg>
