<?xml version="1.0" encoding="utf-8"?>
<!-- Generator: Adobe Illustrator 16.0.3, SVG Export Plug-In . SVG Version: 6.00 Build 0)  -->
<!DOCTYPE svg PUBLIC "-//W3C//DTD SVG 1.1//EN" "http://www.w3.org/Graphics/SVG/1.1/DTD/svg11.dtd">
<svg version="1.1" id="レイヤー_1" xmlns="http://www.w3.org/2000/svg" xmlns:xlink="http://www.w3.org/1999/xlink" x="0px"
	 y="0px" width="213px" height="213px" viewBox="0 0 213 213" enable-background="new 0 0 213 213" xml:space="preserve">
<path fill="none" d="M0,0h213v213H0V0z"/>
<path fill="#FFFFFF" stroke="#2E9CBD" stroke-width="10.073" stroke-miterlimit="10" d="M94.503,166.588H44.225
	c-45.596,0-43.393-67.462,0-67.801c-5.34-33.208,27.688-47.24,50.278-41.335V166.588z"/>
<path fill="#D93E28" stroke="#212222" stroke-width="7.526" d="M159.482,85.206c-2.442-1.244-4.428-3.229-5.672-5.671
	c-1.414-2.775-1.414-6.409-1.414-13.677V34.715h-39.795c-7.268,0-10.9,0-13.678,1.414c-2.441,1.245-4.427,3.229-5.671,5.671
	c-1.414,2.776-1.414,6.41-1.414,13.678v120.397c0,7.27,0,10.9,1.414,13.678c1.244,2.441,3.229,4.427,5.671,5.672
	c2.775,1.414,6.41,1.414,13.678,1.414h70.938c7.269,0,10.901,0,13.677-1.414c2.442-1.244,4.428-3.229,5.672-5.672
	c1.414-2.775,1.414-6.408,1.414-13.678V86.621h-31.144C165.893,86.621,162.258,86.621,159.482,85.206z"/>
<path fill="#FFFFFF" stroke="#212222" stroke-width="7.526" d="M203.943,80.315c-0.318-1.324-0.842-2.59-1.553-3.751
	c-0.804-1.31-1.926-2.432-4.17-4.676l-31.093-31.093c-2.244-2.244-3.366-3.366-4.676-4.168c-1.161-0.711-2.428-1.236-3.752-1.555
	c-1.492-0.358-3.079-0.358-6.253-0.358h-0.051v31.144c0,7.268,0,10.901,1.414,13.677c1.243,2.442,3.229,4.427,5.67,5.671
	c2.775,1.415,6.41,1.415,13.678,1.415h31.144V86.57C204.303,83.396,204.303,81.81,203.943,80.315z"/>
<g>
	<path fill="#FFFFFF" d="M104.436,141.598v-33.846h15.604c7.649,0,11.194,3.303,11.194,10.563c0,6.36-4.84,10.766-11.67,10.766
		h-6.051v12.52h-9.078V141.598z M113.514,122.105h3.502c3.717,0,5.144-1.061,5.144-3.834c0-2.568-1.341-3.506-4.843-3.506h-3.803
		V122.105z M134.563,107.752h13.229c10.113,0,15.432,5.872,15.432,16.678c0,11.215-5.707,17.168-16.729,17.168h-11.932V107.752z
		 M143.469,134.462h3.371c5.273,0,7.088-2.772,7.088-10.397c0-6.28-2.289-9.176-7.175-9.176h-3.284V134.462z M167.199,141.598
		v-33.846h24.508v7.055h-15.475v6.606h12.231v6.892h-12.231v13.293H167.199z"/>
</g>
<g>
	<path fill="none" stroke="#040000" stroke-width="9.862" stroke-miterlimit="10" d="M176.23,22.733h-14.664"/>
	<path fill="none" stroke="#040000" stroke-width="9.862" stroke-miterlimit="10" stroke-dasharray="37.544,15.6156" d="
		M145.951,22.733H100.6"/>
	<path fill="none" stroke="#040000" stroke-width="9.862" stroke-miterlimit="10" d="M92.792,22.733H78.128v14.663"/>
	<path fill="none" stroke="#040000" stroke-width="9.862" stroke-miterlimit="10" stroke-dasharray="31.0006,12.894" d="
		M78.128,50.291v125.236"/>
	<path fill="none" stroke="#040000" stroke-width="9.862" stroke-miterlimit="10" d="M78.128,181.975v14.664"/>
</g>
</svg>
