<svg class="svg-icon" style="width: 1.041015625em;height: 1em;vertical-align: middle;fill: currentColor;overflow: hidden;" viewBox="0 0 1066 1024" version="1.1" xmlns="http://www.w3.org/2000/svg"><path d="M554.666667 85.333333a298.666667 298.666667 0 0 0-298.666667 298.666667v256a298.666667 298.666667 0 1 0 597.333333 0V384a298.666667 298.666667 0 0 0-298.666666-298.666667zM341.333333 384a213.333333 213.333333 0 0 1 170.666667-209.066667V426.666667H341.333333V384z m426.666667 256a213.333333 213.333333 0 1 1-426.666667 0v-128h426.666667v128z m0-213.333333h-170.666667V174.933333A213.333333 213.333333 0 0 1 768 384v42.666667z" fill="#42526E" /></svg>