<svg class="svg-icon" style="width: 1em;height: 1em;vertical-align: middle;fill: currentColor;overflow: hidden;" viewBox="0 0 1024 1024" version="1.1" xmlns="http://www.w3.org/2000/svg"><path d="M785.92 329.386667A298.666667 298.666667 0 0 0 215.893333 410.026667a170.666667 170.666667 0 0 0-16.213333 326.826666c4.437333 1.365333 9.002667 2.090667 13.653333 2.133334a43.221333 43.221333 0 1 0 13.653334-85.333334A85.333333 85.333333 0 0 1 170.666667 576a85.333333 85.333333 0 0 1 85.333333-85.333333 42.666667 42.666667 0 0 0 42.666667-42.666667 213.333333 213.333333 0 0 1 415.146666-68.693333 42.666667 42.666667 0 0 0 33.28 28.586666 128 128 0 0 1 42.666667 235.946667 42.794667 42.794667 0 0 0 42.666667 74.24A213.333333 213.333333 0 0 0 938.666667 533.333333a213.333333 213.333333 0 0 0-152.746667-203.946666z m-394.666667 256a170.666667 170.666667 0 1 0 241.493334 0 174.933333 174.933333 0 0 0-241.493334-2.133334v2.133334zM426.666667 704a85.333333 85.333333 0 0 1 85.333333-85.333333c7.338667 0.085333 14.677333 1.109333 21.76 2.986666L429.653333 725.333333a89.173333 89.173333 0 0 1-2.986666-21.333333z m145.493333 60.16a85.333333 85.333333 0 0 1-81.493333 21.333333L594.346667 682.666667c1.877333 7.082667 2.901333 14.421333 2.986666 21.76a85.333333 85.333333 0 0 1-25.173333 59.733333z" fill="#42526E" /></svg>