<svg class="svg-icon" style="width: 1em;height: 1em;vertical-align: middle;fill: currentColor;overflow: hidden;" viewBox="0 0 1024 1024" version="1.1" xmlns="http://www.w3.org/2000/svg"><path d="M512 356.266667a130.986667 130.986667 0 0 0-151.04 22.613333 128 128 0 0 0 0 180.906667L481.706667 682.666667a42.666667 42.666667 0 0 0 60.586666 0l120.746667-120.746667a128 128 0 0 0 0-180.906667A130.986667 130.986667 0 0 0 512 356.266667z m90.453333 143.36L512 590.08l-90.453333-90.453333a42.666667 42.666667 0 1 1 60.16-60.586667 42.666667 42.666667 0 0 0 60.586666 0 42.666667 42.666667 0 1 1 60.16 60.586667zM512 85.333333C276.352 85.333333 85.333333 276.352 85.333333 512a421.973333 421.973333 0 0 0 96.426667 270.08l-85.333333 85.333333a42.666667 42.666667 0 0 0-8.96 46.506667A42.666667 42.666667 0 0 0 128 938.666667h384c235.648 0 426.666667-191.018667 426.666667-426.666667S747.648 85.333333 512 85.333333z m0 768H230.826667l39.68-39.68a42.666667 42.666667 0 0 0 0-60.16A341.333333 341.333333 0 1 1 512 853.333333z" fill="#42526E" /></svg>