<?xml version="1.0" encoding="utf-8"?>
<!-- Generator: Adobe Illustrator 16.0.3, SVG Export Plug-In . SVG Version: 6.00 Build 0)  -->
<!DOCTYPE svg PUBLIC "-//W3C//DTD SVG 1.1//EN" "http://www.w3.org/Graphics/SVG/1.1/DTD/svg11.dtd">
<svg version="1.1" id="レイヤー_1" xmlns="http://www.w3.org/2000/svg" xmlns:xlink="http://www.w3.org/1999/xlink" x="0px"
	 y="0px" width="800px" height="800px" viewBox="0 0 800 800" enable-background="new 0 0 800 800" xml:space="preserve">
<path fill="#42526E" d="M682.39,399.902c-29.48-45.125-79.454-72.654-133.35-73.46c-0.393-11.49-1.848-22.92-4.346-34.143
	c-4.243-17.908-22.199-28.986-40.108-24.743c-17.908,4.242-28.986,22.199-24.743,40.107c0.002,0.011,0.005,0.022,0.008,0.033
	c1.488,6.591,2.411,13.297,2.757,20.044c-37.184,4.604-73.651,13.806-108.567,27.396c0.751-40.128,2.56-80.242,6.558-120.243
	l1.275-12.74c39.056-5.321,77.802-12.712,116.075-22.139l4.003-0.993c17.895-4.327,28.893-22.341,24.565-40.234
	s-22.34-28.892-40.234-24.564c-0.115,0.027-0.23,0.056-0.347,0.085l-4.068,1.01c-30.722,7.682-61.855,13.482-93.132,18.353
	l5.046-50.352c1.834-18.319-11.53-34.657-29.851-36.491c-18.319-1.834-34.657,11.531-36.49,29.851l0,0l-6.54,65.309
	c-31.13,2.792-62.345,4.68-93.622,4.68c-18.41,0-33.333,14.924-33.333,33.333c0,18.41,14.924,33.334,33.333,33.334
	c29.018,0,57.983-1.547,86.893-3.807c-4.888,52.054-7.148,104.32-6.771,156.602c-4.474,2.441-8.988,4.736-13.422,7.313
	c-22.674,12.99-44.387,27.589-64.974,43.685l-0.749,0.603c-33.437,25.794-63.145,56.089-88.281,90.022
	c-32.368,44.845-22.254,107.438,22.59,139.806c21.831,15.757,49.087,22.06,75.62,17.486c33.092-6.285,65.004-17.681,94.592-33.779
	c9.838,15.465,30.351,20.026,45.815,10.188c11.281-7.177,17.154-20.423,14.897-33.603c-0.808-4.84-1.178-9.73-1.937-14.577
	c15.397-11.901,30.027-24.766,43.8-38.515c27.234-27.124,50.788-57.708,70.056-90.967c0.764-1.316,1.404-2.637,2.148-3.955
	c3.934-7.02,7.648-14.066,11.06-21.165c1.795-3.703,3.41-7.392,5.052-11.094c1.998-4.541,3.907-9.074,5.683-13.628
	c1.882-4.787,3.66-9.554,5.281-14.322c1.079-3.194,2.019-6.375,2.983-9.564c1.711-5.628,3.392-11.237,4.733-16.81l0.166-0.592
	c32.346-0.467,62.938,14.665,82.194,40.657c33.952,58.903-32.097,165.9-147.233,238.493c-15.598,9.771-20.321,30.336-10.551,45.934
	c9.771,15.597,30.335,20.321,45.933,10.551c0.055-0.035,0.11-0.069,0.165-0.104C662.988,633.659,735.808,492.578,682.39,399.902z
	 M226.53,619.418c-18.258,2.954-35.455-9.451-38.409-27.71c-1.406-8.686,0.663-17.575,5.76-24.748
	c21.778-29.193,47.476-55.247,76.367-77.425l0.879-0.717c11.796-9.23,24.733-17.966,38.134-26.433
	c2.036,39.846,5.761,79.562,10.864,119.163C291.554,599.885,259.812,612.727,226.53,619.418z M470.855,399.984
	c-3.062,8.857-6.58,17.551-10.538,26.046c-1.854,3.963-3.934,7.925-6.007,11.897c-3.204,6.189-6.655,12.349-10.353,18.478
	c-2.822,4.651-5.729,9.296-8.838,13.914c-13.746,20.571-29.454,39.761-46.904,57.3c-2.327,2.328-4.781,4.443-7.153,6.7
	c-3.625-35.5-5.973-71.086-7.041-106.759c31.26-14.361,64.177-24.801,98-31.079C471.634,397.65,471.265,398.812,470.855,399.984
	L470.855,399.984z"/>
</svg>
