<?xml version="1.0" encoding="utf-8"?>
<!-- Generator: Adobe Illustrator 16.0.3, SVG Export Plug-In . SVG Version: 6.00 Build 0)  -->
<!DOCTYPE svg PUBLIC "-//W3C//DTD SVG 1.1//EN" "http://www.w3.org/Graphics/SVG/1.1/DTD/svg11.dtd">
<svg version="1.1" id="レイヤー_1" xmlns="http://www.w3.org/2000/svg" xmlns:xlink="http://www.w3.org/1999/xlink" x="0px"
	 y="0px" width="859.258px" height="214.425px" viewBox="0 0 859.258 214.425" enable-background="new 0 0 859.258 214.425"
	 xml:space="preserve">
<path fill="#444344" d="M196.962,64.095l-4.585-8.151c-0.022-0.037-0.046-0.074-0.068-0.11
	c-17.515-27.876-48.532-46.409-83.884-46.409c-54.676,0-99,44.324-99,99c0,15.767,3.692,30.669,10.249,43.899
	c0,0.001,0,0.001,0,0.001h177.5c6.558-13.23,10.25-28.133,10.25-43.9C207.425,92.487,203.653,77.432,196.962,64.095z"/>
<circle fill="#444344" cx="108.425" cy="108.425" r="99.921"/>
<polygon fill="#C6C6C6" points="19.673,152.325 19.674,152.325 19.674,152.324 "/>
<path fill="#C6C6C6" d="M192.313,55.831l-0.005,0.003c0.022,0.037,0.046,0.074,0.068,0.11L192.313,55.831z"/>
<path fill="#444344" d="M192.377,55.944l4.585,8.151C195.56,61.3,194.028,58.581,192.377,55.944z"/>
<path fill="#3260AC" d="M19.674,152.325c16.181,32.649,49.841,55.1,88.75,55.1c38.908,0,72.569-22.45,88.75-55.1H19.674z"/>
<g>
	<g>
		<circle fill="none" cx="78.753" cy="53.013" r="2.818"/>
		<circle fill="none" cx="93.295" cy="67.442" r="2.818"/>
		<path fill="#9A6432" d="M108.852,72.289L75.372,38.81c-2.93-2.932-7.777-2.932-10.821,0c-2.932,2.93-2.932,7.777,0,10.821
			L98.03,83.11L108.852,72.289z M80.782,54.929c-1.127,1.127-2.93,1.127-4.058,0c-1.127-1.127-1.127-2.931,0-4.058
			c1.127-1.127,2.931-1.127,4.058,0C81.797,52.11,81.797,53.915,80.782,54.929z M95.212,69.471c-1.127,1.127-2.932,1.127-4.059,0
			s-1.127-2.931,0-4.058c1.127-1.127,2.932-1.127,4.059,0C96.339,66.54,96.339,68.343,95.212,69.471z"/>
		<path fill="#C6C6C6" d="M177.728,133.501c-7.778-4.624-20.741-13.078-32.578-24.914c-18.374-18.374-34.269-34.268-34.269-34.268
			l-31.563,31.564l46.444,46.442h44.188l9.019-9.018C181.898,140.377,181.223,135.528,177.728,133.501z"/>
	</g>
	<g>
		<g>
			<rect x="27.702" y="151.126" fill="#FFFFFF" width="6" height="2.398"/>
		</g>
		<g>
			<path fill="#FFFFFF" d="M172.402,153.524h-11.5v-2.398h11.6v2.398H172.402z M149.302,153.524h-11.6v-2.398h11.6V153.524z
				 M126.202,153.524h-11.601v-2.398h11.601V153.524z M103.102,153.524h-11.6v-2.398h11.6V153.524z M79.902,153.524H68.302v-2.398
				h11.601V153.524z M56.802,153.524h-11.6v-2.398h11.6V153.524z"/>
		</g>
		<g>
			<rect x="184.002" y="151.126" fill="#FFFFFF" width="6" height="2.398"/>
		</g>
	</g>
</g>
<g>
	<rect x="223.092" y="46.258" fill="none" width="714.167" height="161.167"/>
	<path d="M312.29,89.676h-31.155v89.197h-24.68V89.676h-31.002V69.643h86.836V89.676z"/>
	<path d="M386.09,178.873h-23.994v-44.332c0-11.426-4.164-17.139-12.492-17.139c-4.266,0-7.72,1.6-10.359,4.799
		c-2.641,3.199-3.961,7.263-3.961,12.188v44.484h-24.07V63.396h24.07v49.055h0.305c5.891-8.988,13.889-13.482,23.994-13.482
		c17.672,0,26.508,10.664,26.508,31.992V178.873z"/>
	<path d="M403.905,88.533c-4.063,0-7.389-1.206-9.979-3.618c-2.59-2.411-3.885-5.37-3.885-8.874c0-3.605,1.295-6.551,3.885-8.836
		s5.915-3.428,9.979-3.428c4.113,0,7.452,1.143,10.017,3.428c2.563,2.285,3.847,5.231,3.847,8.836c0,3.656-1.283,6.653-3.847,8.988
		C411.357,87.366,408.018,88.533,403.905,88.533z M415.788,178.873h-24.07v-78h24.07V178.873z"/>
	<path d="M481.743,176.055c-5.435,3.148-13.28,4.723-23.537,4.723c-11.985,0-21.684-3.63-29.098-10.893
		c-7.415-7.262-11.121-16.631-11.121-28.107c0-13.254,3.973-23.701,11.921-31.345c7.947-7.643,18.573-11.464,31.878-11.464
		c9.19,0,15.844,1.219,19.957,3.656v20.414c-5.027-3.757-10.639-5.637-16.834-5.637c-6.906,0-12.378,2.019-16.415,6.056
		s-6.056,9.61-6.056,16.72c0,6.906,1.93,12.328,5.789,16.263c3.858,3.936,9.166,5.903,15.92,5.903
		c5.991,0,11.856-1.878,17.596-5.637V176.055z"/>
	<path d="M562.247,178.873h-28.869l-24.908-38.695h-0.305v38.695h-24.07V63.396h24.07v73.506h0.305l23.232-36.029h28.564
		l-27.955,36.639L562.247,178.873z"/>
	<path d="M584.545,174.684v-24.375c4.418,3.707,9.217,6.487,14.396,8.341c5.18,1.854,10.409,2.78,15.691,2.78
		c3.097,0,5.801-0.278,8.112-0.838c2.311-0.559,4.239-1.333,5.789-2.323c1.549-0.99,2.704-2.158,3.466-3.504
		c0.762-1.345,1.143-2.806,1.143-4.38c0-2.133-0.609-4.037-1.828-5.713s-2.883-3.225-4.989-4.646
		c-2.107-1.421-4.608-2.792-7.503-4.113c-2.895-1.32-6.018-2.666-9.369-4.037c-8.531-3.554-14.892-7.896-19.081-13.025
		c-4.189-5.128-6.284-11.323-6.284-18.586c0-5.687,1.143-10.575,3.428-14.663c2.285-4.087,5.396-7.452,9.331-10.093
		c3.935-2.64,8.493-4.582,13.673-5.827c5.18-1.244,10.664-1.866,16.453-1.866c5.687,0,10.728,0.343,15.12,1.028
		c4.392,0.686,8.442,1.74,12.149,3.161v22.775c-1.828-1.269-3.821-2.386-5.979-3.352c-2.159-0.964-4.38-1.764-6.665-2.399
		c-2.285-0.634-4.559-1.104-6.817-1.409c-2.26-0.305-4.406-0.457-6.437-0.457c-2.793,0-5.332,0.267-7.617,0.8
		s-4.216,1.283-5.789,2.247c-1.574,0.965-2.793,2.121-3.656,3.466c-0.864,1.346-1.295,2.856-1.295,4.532
		c0,1.828,0.482,3.466,1.447,4.913c0.964,1.447,2.335,2.818,4.113,4.113c1.777,1.295,3.935,2.564,6.475,3.809
		c2.539,1.245,5.408,2.527,8.607,3.847c4.367,1.828,8.29,3.771,11.769,5.827c3.478,2.057,6.462,4.38,8.95,6.97
		c2.487,2.59,4.392,5.549,5.713,8.874c1.32,3.326,1.98,7.198,1.98,11.616c0,6.094-1.155,11.21-3.466,15.349
		c-2.312,4.14-5.446,7.491-9.407,10.055c-3.961,2.564-8.569,4.406-13.825,5.522s-10.805,1.676-16.644,1.676
		c-5.992,0-11.692-0.508-17.101-1.523S588.506,176.715,584.545,174.684z"/>
	<path d="M685.311,178.873h-24.07V63.396h24.07V178.873z"/>
	<path d="M704.344,88.533c-4.063,0-7.389-1.206-9.979-3.618c-2.59-2.411-3.885-5.37-3.885-8.874c0-3.605,1.295-6.551,3.885-8.836
		s5.915-3.428,9.979-3.428c4.113,0,7.452,1.143,10.017,3.428c2.563,2.285,3.847,5.231,3.847,8.836c0,3.656-1.283,6.653-3.847,8.988
		C711.796,87.366,708.458,88.533,704.344,88.533z M716.227,178.873h-24.07v-78h24.07V178.873z"/>
	<path d="M782.182,176.055c-5.435,3.148-13.28,4.723-23.537,4.723c-11.985,0-21.684-3.63-29.098-10.893
		c-7.415-7.262-11.121-16.631-11.121-28.107c0-13.254,3.973-23.701,11.921-31.345c7.947-7.643,18.573-11.464,31.878-11.464
		c9.19,0,15.844,1.219,19.957,3.656v20.414c-5.027-3.757-10.639-5.637-16.834-5.637c-6.906,0-12.378,2.019-16.415,6.056
		s-6.056,9.61-6.056,16.72c0,6.906,1.93,12.328,5.789,16.263c3.858,3.936,9.166,5.903,15.92,5.903
		c5.991,0,11.856-1.878,17.596-5.637V176.055z"/>
	<path d="M854.612,146.729h-50.883c0.812,11.324,7.947,16.986,21.404,16.986c8.581,0,16.122-2.03,22.623-6.094v17.367
		c-7.211,3.859-16.58,5.789-28.107,5.789c-12.595,0-22.369-3.491-29.326-10.474c-6.958-6.981-10.436-16.72-10.436-29.212
		c0-12.949,3.758-23.206,11.273-30.773c7.515-7.565,16.758-11.35,27.727-11.35c11.375,0,20.173,3.378,26.394,10.131
		c6.22,6.755,9.331,15.92,9.331,27.498V146.729z M832.293,131.951c0-11.171-4.521-16.758-13.559-16.758
		c-3.859,0-7.198,1.6-10.017,4.799s-4.532,7.187-5.142,11.959H832.293z"/>
</g>
<g>
</g>
<g>
</g>
<g>
</g>
<g>
</g>
<g>
</g>
<g>
</g>
</svg>
