<?xml version="1.0" encoding="utf-8"?>
<!-- Generator: Adobe Illustrator 16.0.3, SVG Export Plug-In . SVG Version: 6.00 Build 0)  -->
<!DOCTYPE svg PUBLIC "-//W3C//DTD SVG 1.1//EN" "http://www.w3.org/Graphics/SVG/1.1/DTD/svg11.dtd">
<svg version="1.1" id="レイヤー_1" xmlns="http://www.w3.org/2000/svg" xmlns:xlink="http://www.w3.org/1999/xlink" x="0px"
	 y="0px" width="401.842px" height="401.843px" viewBox="0 0 401.842 401.843" enable-background="new 0 0 401.842 401.843"
	 xml:space="preserve">
<path fill="#444344" d="M378.951,111.782l-9.22-16.39c-0.045-0.073-0.093-0.147-0.138-0.222
	C334.375,39.117,272.005,1.852,200.92,1.852C90.978,1.852,1.852,90.978,1.852,200.921c0,31.703,7.425,61.668,20.609,88.272
	c0,0.002,0.001,0.002,0.001,0.002h356.917c13.187-26.604,20.61-56.569,20.61-88.274
	C399.989,168.872,392.406,138.601,378.951,111.782z"/>
<circle fill="#444344" cx="200.921" cy="200.921" r="200.921"/>
<polygon fill="#C6C6C6" points="22.458,289.195 22.461,289.195 22.46,289.193 "/>
<path fill="#C6C6C6" d="M369.603,95.165l-0.01,0.006c0.045,0.074,0.093,0.148,0.138,0.222L369.603,95.165z"/>
<path fill="#444344" d="M369.731,95.393l9.22,16.39C376.13,106.162,373.051,100.694,369.731,95.393z"/>
<path fill="#3260AC" d="M22.461,289.195c32.537,65.651,100.221,110.794,178.459,110.794c78.236,0,145.922-45.143,178.458-110.794
	H22.461z"/>
<g>
	<g>
		<circle fill="none" cx="141.257" cy="89.499" r="5.667"/>
		<circle fill="none" cx="170.499" cy="118.512" r="5.667"/>
		<path fill="#9A6432" d="M201.778,128.259l-67.321-67.319c-5.892-5.895-15.639-5.895-21.759,0c-5.895,5.892-5.895,15.639,0,21.759
			l67.321,67.32L201.778,128.259z M145.337,93.351c-2.266,2.267-5.892,2.267-8.159,0c-2.267-2.267-2.267-5.893,0-8.159
			c2.267-2.267,5.893-2.267,8.159,0C147.378,87.684,147.378,91.312,145.337,93.351z M174.353,122.592
			c-2.267,2.267-5.895,2.267-8.162,0c-2.267-2.268-2.267-5.894,0-8.159c2.267-2.267,5.895-2.267,8.162,0
			C176.619,116.698,176.619,120.324,174.353,122.592z"/>
		<path fill="#C6C6C6" d="M340.274,251.344c-15.641-9.298-41.706-26.298-65.508-50.098c-36.946-36.946-68.908-68.905-68.908-68.905
			l-63.468,63.468l93.389,93.387h88.854l18.135-18.133C348.661,265.17,347.302,255.42,340.274,251.344z"/>
	</g>
	<g>
		<g>
			<rect x="38.604" y="286.784" fill="#FFFFFF" width="12.065" height="4.822"/>
		</g>
		<g>
			<path fill="#FFFFFF" d="M329.566,291.606h-23.124v-4.822h23.324v4.822H329.566z M283.116,291.606h-23.325v-4.822h23.325V291.606z
				 M236.667,291.606h-23.326v-4.822h23.326V291.606z M190.216,291.606h-23.324v-4.822h23.324V291.606z M143.567,291.606h-23.326
				v-4.822h23.326V291.606z M97.117,291.606H73.792v-4.822h23.325V291.606z"/>
		</g>
		<g>
			<rect x="352.89" y="286.784" fill="#FFFFFF" width="12.065" height="4.822"/>
		</g>
	</g>
</g>
<g>
</g>
<g>
</g>
<g>
</g>
<g>
</g>
<g>
</g>
<g>
</g>
</svg>
